<?xml version="1.0" encoding="UTF-8"?>
<svg xmlns="http://www.w3.org/2000/svg" id="Layer_1" viewBox="0 0 200 38">
  <path d="M196.09,6.07c0-.67-.55-1.22-1.22-1.22-.35,0-.66,.14-.88,.38l-10.85,11.72c-.23,.22-.37,.53-.37,.87,0,.67,.55,1.22,1.22,1.22,.38,0,.72-.17,.94-.44l10.78-11.65c.23-.22,.38-.53,.38-.88h0Z" fill="#58595b"></path>
  <path d="M3.91,6.06c0-.67,.55-1.22,1.22-1.22,.34,0,.65,.14,.87,.36h0s10.87,11.74,10.87,11.74c0,0,0,0,0,0l.05,.06h0c.19,.21,.3,.49,.3,.8,0,.67-.55,1.22-1.22,1.22-.39,0-.73-.18-.95-.46L4.33,6.99h0c-.26-.23-.43-.56-.43-.93h0Z" fill="#e2813b"></path>
  <path d="M63.49,1.42c-.67,0-1.22,.55-1.22,1.22V31.81L40.78,1.98c-.22-.33-.59-.56-1.02-.56-.67,0-1.22,.55-1.22,1.22V35.59c0,.67,.55,1.22,1.22,1.22s1.22-.55,1.22-1.22V6.43l21.46,29.78c.21,.36,.6,.6,1.05,.6,.67,0,1.22-.55,1.22-1.22V2.65c0-.67-.55-1.22-1.22-1.22h0Z" fill="#e2813b"></path>
  <path d="M117.86,3.11h0c.06-.14,.09-.3,.09-.46,0-.67-.55-1.22-1.22-1.22-.51,0-.95,.31-1.13,.76h0s-12.69,30.26-12.69,30.26l-9.1-21.5c-.18-.44-.62-.75-1.13-.75s-.94,.31-1.13,.75l-9.11,21.5L69.78,2.2s-.01-.04-.02-.05h0s0,0,0,0c-.19-.42-.62-.72-1.11-.72-.67,0-1.22,.55-1.22,1.22,0,.2,.05,.39,.13,.55l13.76,32.86c.18,.44,.62,.75,1.13,.75s.94-.31,1.13-.75l9.12-21.52,9.1,21.52s0,0,0,.01h0s0,0,0,0c.19,.43,.62,.74,1.12,.74s.94-.31,1.13-.75h0L117.85,3.13s0,0,0-.01h0Z" fill="#58595b"></path>
  <path d="M165.6,34.37h-17.06V2.65c0-.67-.55-1.22-1.22-1.22s-1.22,.55-1.22,1.22V35.59c0,.67,.55,1.22,1.22,1.22h18.28c.67,0,1.22-.55,1.22-1.22s-.55-1.22-1.22-1.22h0Z" fill="#58595b"></path>
  <path d="M140.73,34.37s-.02,0-.03,0h-17.01v-14.17h14.59c.67,0,1.22-.55,1.22-1.22s-.55-1.22-1.22-1.22h-14.59V3.87h17.03c.67,0,1.22-.55,1.22-1.22s-.55-1.22-1.22-1.22h-18.25c-.67,0-1.22,.55-1.22,1.22V35.59c0,.67,.55,1.22,1.22,1.22,0,0,.01,0,.02,0h0s18.25,0,18.25,0h0c.67,0,1.2-.55,1.2-1.22s-.55-1.22-1.22-1.22h0Z" fill="#58595b"></path>
  <g>
    <path d="M196.43,7.99l-1.71,1.83c1.71,2.59,2.71,5.76,2.71,9.18,0,8.73-6.55,15.84-14.61,15.84s-14.61-7.1-14.61-15.84,6.55-15.84,14.61-15.84c3.2,0,6.17,1.13,8.58,3.03l1.67-1.79c-2.86-2.31-6.41-3.68-10.25-3.68-9.4,0-17.05,8.2-17.05,18.28s7.65,18.28,17.05,18.28,17.05-8.2,17.05-18.28c0-4.13-1.29-7.95-3.45-11.01h0Z" fill="#58595b"></path>
    <path d="M3.57,7.98l1.71,1.83c-1.71,2.59-2.71,5.76-2.71,9.18,0,8.73,6.55,15.84,14.61,15.84s14.61-7.1,14.61-15.84S25.23,3.16,17.17,3.16c-3.2,0-6.17,1.13-8.58,3.03l-1.67-1.79C9.78,2.09,13.33,.72,17.17,.72c9.4,0,17.05,8.2,17.05,18.28s-7.65,18.28-17.05,18.28S.12,29.07,.12,19C.12,14.86,1.41,11.05,3.57,7.98h0Z" fill="#e2813b"></path>
  </g>
</svg>
